<?xml version="1.0" encoding="UTF-8"?>
<svg width="584px" height="877px" viewBox="0 0 584 877" version="1.1" xmlns="http://www.w3.org/2000/svg" xmlns:xlink="http://www.w3.org/1999/xlink">
    <!-- Generator: Sketch 52.2 (67145) - http://www.bohemiancoding.com/sketch -->
    <title>wwf-logo</title>
    <desc>Created with Sketch.</desc>
    <g id="Page-1" stroke="none" stroke-width="1">
        <g id="wwf-logo" fill-rule="nonzero">
            <path d="M203.714286,715 C198.714286,715 194.071429,718.214286 192.285714,722.857143 L168.714286,782.142857 L166.571429,788.928571 L164.785714,782.142857 L146.571429,724.642857 C146.571429,724.285714 146.571429,724.285714 146.214286,724.285714 C144.428571,719.285714 139.785714,716.071429 134.428571,716.071429 L105.142857,716.071429 C98.3571429,716.428571 93.3571429,721.785714 93.3571429,728.571429 C93.7142857,730.714286 94.0714286,732.857143 94.7857143,735 L98.7142857,747.142857 L84.4285714,783.214286 L82.2857143,790 L80.5,783.214286 L62.2857143,725.357143 C62.2857143,725.357143 61.9285714,725 61.9285714,725 C60.1428571,720 55.5,716.428571 50.1428571,716.428571 L20.8571429,716.428571 C14.4285714,716.785714 9.07142857,722.142857 9.07142857,728.928571 C9.07142857,731.071429 9.78571429,733.214286 10.5,735.357143 L54.4285714,866.428571 C55.8571429,871.785714 60.8571429,875.714286 66.2142857,875.714286 C71.5714286,875.714286 76.5714286,872.142857 78,867.142857 L108.714286,789.642857 L110.857143,782.857143 L112.642857,789.642857 L138.714286,866.785714 C140.142857,872.142857 145.142857,876.071429 150.5,876.071429 C155.857143,876.071429 160.857143,872.5 162.285714,867.142857 L214.785714,732.857143 C215.5,731.071429 215.857143,729.285714 215.857143,727.5 C216.214286,720.714286 210.5,715 203.714286,715" id="Shape"></path>
            <path d="M422.642857,715 C417.642857,715 413,718.214286 410.857143,722.857143 L387.642857,782.142857 L385.5,788.928571 L383.714286,782.142857 L365.5,724.285714 C365.5,724.285714 365.5,723.928571 365.5,723.928571 C363.714286,718.928571 359.071429,715.714286 353.714286,715.714286 L324.428571,715.714286 C318,716.071429 312.642857,721.428571 312.642857,728.214286 C312.642857,730.357143 313.357143,732.5 314.071429,734.642857 L318,746.785714 L303.714286,782.857143 L301.214286,789.642857 L299.428571,782.857143 L281.214286,725 C281.214286,725 280.857143,724.642857 280.857143,724.642857 C279.071429,719.642857 274.428571,716.428571 269.428571,716.428571 L239.785714,716.428571 C233,716.785714 228,722.142857 228,728.928571 C228.357143,731.071429 228.714286,733.214286 229.428571,735.357143 L273.357143,866.428571 C274.785714,871.785714 279.785714,875.714286 285.142857,875.714286 C290.5,875.714286 295.142857,872.142857 296.928571,867.142857 L327.642857,789.642857 L329.785714,782.857143 L331.571429,789.642857 L357.285714,866.785714 C359.071429,873.571429 365.857143,877.5 372.285714,875.714286 C376.571429,874.642857 379.785714,871.428571 381.214286,867.142857 L433.357143,734.285714 C434.071429,732.5 434.428571,730.714286 434.428571,728.928571 C435.142857,720.714286 429.428571,715 422.642857,715 C422.642857,715 422.642857,715 422.642857,715" id="Shape"></path>
            <path d="M564.785714,715.357143 L462.285714,715.357143 C456.214286,715.357143 451.571429,720 451.571429,726.071429 L451.571429,862.5 C451.928571,868.571429 456.928571,873.571429 463,873.571429 L492.285714,873.571429 C498.714286,873.571429 503.714286,868.214286 503.714286,862.142857 L503.714286,798.571429 L545.5,798.571429 C551.571429,798.214286 556.214286,792.857143 555.857143,786.428571 C555.5,780.714286 550.857143,776.071429 545.142857,776.071429 L503.714286,776.071429 L503.714286,739.642857 L565.857143,739.642857 C572.642857,739.642857 577.642857,733.928571 577.642857,727.5 C576.928571,720.714286 571.571429,715.357143 564.785714,715.357143" id="Shape"></path>
            <path d="M405.5,281.071429 C424.071429,302.142857 426.214286,364.285714 473,339.285714 C501.214286,324.285714 500.857143,261.428571 463.357143,238.928571 C433,221.071429 416.214286,245.357143 405.142857,275 C404.428571,276.785714 404.428571,279.285714 405.5,281.071429" id="Shape"></path>
            <path d="M332.642857,271.071429 C313,287.5 299.428571,331.785714 263.357143,316.785714 C234.071429,301.785714 231.571429,244.285714 281.571429,217.5 C316.571429,201.428571 334.428571,233.214286 334.428571,267.142857 C334.428571,268.571429 333.714286,270 332.642857,271.071429" id="Shape"></path>
            <path d="M381.214286,384.642857 C400.5,382.5 396.214286,364.642857 381.571429,360 C366.214286,355.714286 350.5,353.928571 334.428571,353.928571 C309.428571,354.642857 310.142857,373.571429 323,376.785714 C332.642857,380 339.071429,381.428571 347.642857,392.142857 C355.5,407.142857 351.928571,387.857143 381.214286,384.642857" id="Shape"></path>
            <path d="M472.642857,63.2142857 C496.928571,22.8571429 539.428571,30.7142857 560.5,50.7142857 C583.714286,72.5 587.642857,97.8571429 578.714286,115.714286 C566.571429,139.642857 535.5,168.571429 515.142857,140.714286 C506.214286,128.214286 487.285714,113.571429 476.928571,109.285714 C460.5,102.5 457.642857,88.2142857 472.642857,63.2142857" id="Shape"></path>
            <path d="M569.428571,241.785714 C567.285714,234.642857 563.714286,235 563.714286,241.071429 C565.857143,315 521.571429,393.928571 427.285714,394.642857 C403,394.642857 410.5,433.214286 366.214286,413.928571 C334.428571,392.5 316.214286,434.642857 293.714286,389.285714 C288.714286,376.071429 281.214286,371.071429 271.571429,368.571429 C178.714286,345.357143 149.071429,217.142857 231.214286,113.571429 C247.285714,123.214286 253.357143,124.642857 270.857143,108.928571 C280.5,100.357143 291.571429,93.5714286 303.357143,88.2142857 C323,80.7142857 333.714286,72.1428571 316.571429,34.6428571 C294.428571,-14.2857143 249.785714,-0.714285714 229.071429,16.4285714 C205.857143,35.7142857 189.785714,66.4285714 219.428571,102.5 C135.857143,158.928571 121.571429,227.857143 123.714286,288.214286 C125.5,352.142857 109.428571,346.785714 129.785714,411.785714 C131.571429,417.5 127.642857,417.5 124.428571,415.357143 C37.2857143,359.642857 -9.85714286,190 125.857143,96.0714286 C128.714286,93.2142857 127.642857,89.6428571 116.571429,96.4285714 C-0.928571429,158.571429 -11.6428571,278.571429 8,359.642857 C17.6428571,398.928571 3,406.071429 18.3571429,457.5 C53.3571429,565 83,573.571429 125.5,576.428571 C202.285714,576.428571 150.142857,534.285714 153,481.071429 C153,477.857143 156.928571,476.428571 159.071429,482.857143 C201.214286,577.5 230.857143,663.571429 341.928571,655.357143 C406.214286,647.142857 370.5,615 366.571429,597.142857 C319.428571,440.714286 433.714286,403.571429 401.571429,556.428571 C380.142857,643.928571 447.642857,635 495.5,603.571429 C543.714286,571.785714 605.142857,358.928571 569.428571,241.785714 M383,426.785714 C372.285714,455 317.285714,445.357143 315.5,418.214286 C315.5,417.142857 316.928571,417.5 317.642857,417.5 C338.357143,422.5 359.785714,425.357143 381.214286,425.714286 C381.928571,426.071429 383.357143,425.714286 383,426.785714" id="Shape"></path>
            <path d="M136.928571,616.785714 C136.928571,628.214286 128,637.142857 116.571429,637.5 C105.142857,637.857143 96.2142857,628.571429 95.8571429,617.142857 C95.8571429,605.714286 104.785714,596.785714 116.214286,596.428571 C116.214286,596.428571 116.214286,596.428571 116.214286,596.428571 C127.642857,596.428571 136.928571,605.357143 136.928571,616.785714 M116.571429,592.142857 C103,592.142857 91.9285714,603.214286 91.9285714,616.785714 C91.9285714,630.357143 103,641.428571 116.571429,641.428571 C130.142857,641.428571 141.214286,630.357143 141.214286,616.785714 C141.214286,616.785714 141.214286,616.785714 141.214286,616.785714 C140.857143,603.214286 129.785714,592.142857 116.571429,592.142857" id="Shape"></path>
            <path d="M123.357143,620.714286 C123,623.928571 120.142857,626.071429 116.928571,625.714286 C112.285714,625.357143 109.071429,621.428571 109.071429,617.142857 C109.071429,617.142857 109.071429,617.142857 109.071429,616.785714 C108.357143,612.5 111.214286,608.571429 115.5,607.857143 C115.857143,607.857143 116.214286,607.857143 116.571429,607.857143 C119.785714,607.857143 122.285714,609.642857 123,612.857143 L126.571429,612.857143 C126.214286,607.857143 121.571429,603.928571 116.571429,604.285714 C110.5,603.928571 105.142857,608.928571 105.142857,615.357143 C105.142857,615.714286 105.142857,616.428571 105.142857,616.785714 C104.785714,623.214286 109.428571,628.571429 115.857143,629.285714 C116.214286,629.285714 116.571429,629.285714 116.928571,629.285714 C121.928571,629.285714 126.214286,625.714286 126.928571,620.714286 L123.357143,620.714286 Z" id="Shape"></path>
            <path d="M569.071429,675.357143 C569.071429,686.785714 560.142857,696.071429 548.714286,696.071429 C537.285714,696.071429 528,687.142857 528,675.714286 C528,664.285714 536.928571,655 548.357143,655 C548.357143,655 548.357143,655 548.357143,655 C559.785714,655 568.714286,663.928571 569.071429,675.357143 M548.357143,650.714286 C534.785714,650.714286 523.714286,661.785714 523.714286,675.357143 C523.714286,688.928571 534.785714,700 548.357143,700 C561.928571,700 573,688.928571 573,675.357143 C573,661.785714 561.928571,650.714286 548.357143,650.714286 C548.357143,650.714286 548.357143,650.714286 548.357143,650.714286" id="Shape"></path>
            <path d="M544.071429,677.142857 L548,677.142857 L554.071429,687.142857 L558,687.142857 L551.214286,676.785714 C554.428571,676.785714 557.285714,674.285714 557.285714,670.714286 C557.285714,670.714286 557.285714,670.357143 557.285714,670.357143 C557.285714,665.714286 554.428571,663.571429 549.071429,663.571429 L540.142857,663.571429 L540.142857,686.785714 L543.714286,686.785714 L544.071429,677.142857 Z M544.071429,673.928571 L544.071429,666.785714 L548.714286,666.785714 C551.214286,666.785714 553.714286,667.5 553.714286,670.357143 C553.714286,673.928571 551.214286,674.285714 548,674.285714 L544.071429,673.928571 Z" id="Shape"></path>
        </g>
    </g>
</svg>
